<svg width="150" height="150" viewBox="0 0 150 150" fill="none" xmlns="http://www.w3.org/2000/svg">
<rect width="150" height="150" fill="white" fill-opacity="0.0"/>
<path d="M59.5 68C75.1 8 110.5 4.21739 128.5 14C151.5 26.5 124.333 73.5 106.5 89.5C94.2624 98.4909 75.3851 100.98 63 101L38.5 127.5C37.3333 131.667 34.3 140.6 31.5 143C28.7 145.4 27.6666 140 27.5 137C11.5 137.4 22.8333 127.333 31.5 123L57.5 93C56.7491 86.9139 56.6164 79.0908 59.5 68Z" stroke="#88C0D0" stroke-width="2"/>
<path d="M91.5 26.5C88 28.8333 83.1 34.3 91.5 37.5C102 41.5 100 24.5 91.5 26.5Z" stroke="#88C0D0" stroke-width="2"/>
<path d="M119 34C113 32.5 108.5 39.5 116.5 43.5C124 47.25 125 35.5 119 34Z" stroke="#88C0D0" stroke-width="2"/>
<path d="M80 66.5C84.5 75 97.6 87.2 114 68" stroke="#88C0D0" stroke-width="2"/>
</svg>
